%TF.GenerationSoftware,KiCad,Pcbnew,9.0.2*%
%TF.CreationDate,2025-07-29T19:40:39-04:00*%
%TF.ProjectId,LaunchPad_V2,4c61756e-6368-4506-9164-5f56322e6b69,rev?*%
%TF.SameCoordinates,Original*%
%TF.FileFunction,Copper,L2,Bot*%
%TF.FilePolarity,Positive*%
%FSLAX46Y46*%
G04 Gerber Fmt 4.6, Leading zero omitted, Abs format (unit mm)*
G04 Created by KiCad (PCBNEW 9.0.2) date 2025-07-29 19:40:39*
%MOMM*%
%LPD*%
G01*
G04 APERTURE LIST*
%TA.AperFunction,ComponentPad*%
%ADD10C,1.400000*%
%TD*%
%TA.AperFunction,ComponentPad*%
%ADD11C,1.524000*%
%TD*%
%TA.AperFunction,ComponentPad*%
%ADD12C,1.815000*%
%TD*%
%TA.AperFunction,ComponentPad*%
%ADD13R,1.815000X1.815000*%
%TD*%
%TA.AperFunction,ComponentPad*%
%ADD14C,2.200000*%
%TD*%
%TA.AperFunction,ViaPad*%
%ADD15C,0.600000*%
%TD*%
%TA.AperFunction,Conductor*%
%ADD16C,0.200000*%
%TD*%
G04 APERTURE END LIST*
D10*
%TO.P,R3,1*%
%TO.N,Net-(D2-PadA)*%
X203795106Y-41000000D03*
%TO.P,R3,2*%
%TO.N,Net-(U1-GPIO27{slash}ADC1{slash}A1)*%
X203795106Y-46080000D03*
%TD*%
D11*
%TO.P,U1,14,VBUS*%
%TO.N,unconnected-(U1-VBUS-Pad14)*%
X192540000Y-67990000D03*
%TO.P,U1,13,GND*%
%TO.N,GND*%
X192540000Y-65450000D03*
%TO.P,U1,12,3V3*%
%TO.N,unconnected-(U1-3V3-Pad12)*%
X192540000Y-62910000D03*
%TO.P,U1,11,GPIO3/MOSI*%
%TO.N,unconnected-(U1-GPIO3{slash}MOSI-Pad11)*%
X192540000Y-60370000D03*
%TO.P,U1,10,GPIO4/MISO*%
%TO.N,unconnected-(U1-GPIO4{slash}MISO-Pad10)*%
X192540000Y-57830000D03*
%TO.P,U1,9,GPIO2/SCK*%
%TO.N,unconnected-(U1-GPIO2{slash}SCK-Pad9)*%
X192540000Y-55290000D03*
%TO.P,U1,8,GPIO1/RX*%
%TO.N,Net-(U1-GPIO1{slash}RX)*%
X192540000Y-52750000D03*
%TO.P,U1,7,GPIO0/TX*%
%TO.N,Net-(U1-GPIO0{slash}TX)*%
X207780000Y-52750000D03*
%TO.P,U1,6,GPIO7/SCL*%
%TO.N,Net-(U1-GPIO7{slash}SCL)*%
X207780000Y-55290000D03*
%TO.P,U1,5,GPIO6/SDA*%
%TO.N,Net-(U1-GPIO6{slash}SDA)*%
X207780000Y-57830000D03*
%TO.P,U1,4,GPIO29/ADC3/A3*%
%TO.N,Net-(U1-GPIO29{slash}ADC3{slash}A3)*%
X207780000Y-60370000D03*
%TO.P,U1,3,GPIO28/ADC2/A2*%
%TO.N,Net-(U1-GPIO28{slash}ADC2{slash}A2)*%
X207780000Y-62910000D03*
%TO.P,U1,2,GPIO27/ADC1/A1*%
%TO.N,Net-(U1-GPIO27{slash}ADC1{slash}A1)*%
X207780000Y-65450000D03*
%TO.P,U1,1,GPIO26/ADC0/A0*%
%TO.N,Net-(U1-GPIO26{slash}ADC0{slash}A0)*%
X207780000Y-67990000D03*
%TD*%
D12*
%TO.P,D5,A*%
%TO.N,Net-(D5-PadA)*%
X188864894Y-28860000D03*
D13*
%TO.P,D5,C*%
%TO.N,GND*%
X188864894Y-26320000D03*
%TD*%
D14*
%TO.P,SW4,1,1*%
%TO.N,Net-(U1-GPIO1{slash}RX)*%
X232120000Y-54310000D03*
%TO.P,SW4,2,2*%
%TO.N,GND*%
X225770000Y-56850000D03*
%TD*%
%TO.P,SW1,1,1*%
%TO.N,Net-(U1-GPIO6{slash}SDA)*%
X172920000Y-34480000D03*
%TO.P,SW1,2,2*%
%TO.N,GND*%
X166570000Y-37020000D03*
%TD*%
D12*
%TO.P,D2,A*%
%TO.N,Net-(D2-PadA)*%
X203795106Y-28860000D03*
D13*
%TO.P,D2,C*%
%TO.N,GND*%
X203795106Y-26320000D03*
%TD*%
D10*
%TO.P,R2,2*%
%TO.N,Net-(U1-GPIO26{slash}ADC0{slash}A0)*%
X211260212Y-45770000D03*
%TO.P,R2,1*%
%TO.N,Net-(D1-PadA)*%
X211260212Y-40690000D03*
%TD*%
D12*
%TO.P,D1,A*%
%TO.N,Net-(D1-PadA)*%
X211260212Y-28860000D03*
D13*
%TO.P,D1,C*%
%TO.N,GND*%
X211260212Y-26320000D03*
%TD*%
D14*
%TO.P,SW3,1,1*%
%TO.N,Net-(U1-GPIO0{slash}TX)*%
X232020000Y-34430000D03*
%TO.P,SW3,2,2*%
%TO.N,GND*%
X225670000Y-36970000D03*
%TD*%
D12*
%TO.P,D3,A*%
%TO.N,Net-(D3-PadA)*%
X196330000Y-28860000D03*
D13*
%TO.P,D3,C*%
%TO.N,GND*%
X196330000Y-26320000D03*
%TD*%
D10*
%TO.P,R4,2*%
%TO.N,Net-(U1-GPIO28{slash}ADC2{slash}A2)*%
X196330000Y-46120000D03*
%TO.P,R4,1*%
%TO.N,Net-(D3-PadA)*%
X196330000Y-41040000D03*
%TD*%
%TO.P,R1,2*%
%TO.N,Net-(U1-GPIO29{slash}ADC3{slash}A3)*%
X188864894Y-46180000D03*
%TO.P,R1,1*%
%TO.N,Net-(D5-PadA)*%
X188864894Y-41100000D03*
%TD*%
D14*
%TO.P,SW2,1,1*%
%TO.N,Net-(U1-GPIO7{slash}SCL)*%
X172970000Y-54510000D03*
%TO.P,SW2,2,2*%
%TO.N,GND*%
X166620000Y-57050000D03*
%TD*%
D15*
%TO.N,Net-(U1-GPIO6{slash}SDA)*%
X186530000Y-57350000D03*
%TD*%
D16*
%TO.N,Net-(U1-GPIO0{slash}TX)*%
X212858470Y-52750000D02*
X207780000Y-52750000D01*
X231178470Y-34430000D02*
X212858470Y-52750000D01*
X232020000Y-34430000D02*
X231178470Y-34430000D01*
%TO.N,Net-(U1-GPIO6{slash}SDA)*%
X188120000Y-58940000D02*
X186530000Y-57350000D01*
X206670000Y-58940000D02*
X188120000Y-58940000D01*
X207780000Y-57830000D02*
X206670000Y-58940000D01*
%TO.N,Net-(U1-GPIO7{slash}SCL)*%
X174813000Y-56353000D02*
X206717000Y-56353000D01*
X206717000Y-56353000D02*
X207780000Y-55290000D01*
X172970000Y-54510000D02*
X174813000Y-56353000D01*
%TO.N,Net-(U1-GPIO1{slash}RX)*%
X193390000Y-54120000D02*
X193390000Y-53600000D01*
X193390000Y-53600000D02*
X192540000Y-52750000D01*
X231930000Y-54120000D02*
X193390000Y-54120000D01*
X232120000Y-54310000D02*
X231930000Y-54120000D01*
%TD*%
M02*
