%TF.GenerationSoftware,KiCad,Pcbnew,9.0.2*%
%TF.CreationDate,2025-07-29T19:40:39-04:00*%
%TF.ProjectId,LaunchPad_V2,4c61756e-6368-4506-9164-5f56322e6b69,rev?*%
%TF.SameCoordinates,Original*%
%TF.FileFunction,Legend,Bot*%
%TF.FilePolarity,Positive*%
%FSLAX46Y46*%
G04 Gerber Fmt 4.6, Leading zero omitted, Abs format (unit mm)*
G04 Created by KiCad (PCBNEW 9.0.2) date 2025-07-29 19:40:39*
%MOMM*%
%LPD*%
G01*
G04 APERTURE LIST*
%ADD10C,0.200000*%
%ADD11C,0.500000*%
G04 APERTURE END LIST*
D10*
X205713183Y-72717219D02*
X205379850Y-73717219D01*
X205379850Y-73717219D02*
X205046517Y-72717219D01*
X204284612Y-73717219D02*
X204284612Y-73193409D01*
X204284612Y-73193409D02*
X204332231Y-73098171D01*
X204332231Y-73098171D02*
X204427469Y-73050552D01*
X204427469Y-73050552D02*
X204617945Y-73050552D01*
X204617945Y-73050552D02*
X204713183Y-73098171D01*
X204284612Y-73669600D02*
X204379850Y-73717219D01*
X204379850Y-73717219D02*
X204617945Y-73717219D01*
X204617945Y-73717219D02*
X204713183Y-73669600D01*
X204713183Y-73669600D02*
X204760802Y-73574361D01*
X204760802Y-73574361D02*
X204760802Y-73479123D01*
X204760802Y-73479123D02*
X204713183Y-73383885D01*
X204713183Y-73383885D02*
X204617945Y-73336266D01*
X204617945Y-73336266D02*
X204379850Y-73336266D01*
X204379850Y-73336266D02*
X204284612Y-73288647D01*
X203808421Y-73717219D02*
X203808421Y-73050552D01*
X203808421Y-73241028D02*
X203760802Y-73145790D01*
X203760802Y-73145790D02*
X203713183Y-73098171D01*
X203713183Y-73098171D02*
X203617945Y-73050552D01*
X203617945Y-73050552D02*
X203522707Y-73050552D01*
X202760802Y-73050552D02*
X202760802Y-73717219D01*
X203189373Y-73050552D02*
X203189373Y-73574361D01*
X203189373Y-73574361D02*
X203141754Y-73669600D01*
X203141754Y-73669600D02*
X203046516Y-73717219D01*
X203046516Y-73717219D02*
X202903659Y-73717219D01*
X202903659Y-73717219D02*
X202808421Y-73669600D01*
X202808421Y-73669600D02*
X202760802Y-73621980D01*
X202284611Y-73050552D02*
X202284611Y-73717219D01*
X202284611Y-73145790D02*
X202236992Y-73098171D01*
X202236992Y-73098171D02*
X202141754Y-73050552D01*
X202141754Y-73050552D02*
X201998897Y-73050552D01*
X201998897Y-73050552D02*
X201903659Y-73098171D01*
X201903659Y-73098171D02*
X201856040Y-73193409D01*
X201856040Y-73193409D02*
X201856040Y-73717219D01*
X200617944Y-73717219D02*
X200617944Y-72717219D01*
X200617944Y-73193409D02*
X200046516Y-73193409D01*
X200046516Y-73717219D02*
X200046516Y-72717219D01*
X199189373Y-73669600D02*
X199284611Y-73717219D01*
X199284611Y-73717219D02*
X199475087Y-73717219D01*
X199475087Y-73717219D02*
X199570325Y-73669600D01*
X199570325Y-73669600D02*
X199617944Y-73574361D01*
X199617944Y-73574361D02*
X199617944Y-73193409D01*
X199617944Y-73193409D02*
X199570325Y-73098171D01*
X199570325Y-73098171D02*
X199475087Y-73050552D01*
X199475087Y-73050552D02*
X199284611Y-73050552D01*
X199284611Y-73050552D02*
X199189373Y-73098171D01*
X199189373Y-73098171D02*
X199141754Y-73193409D01*
X199141754Y-73193409D02*
X199141754Y-73288647D01*
X199141754Y-73288647D02*
X199617944Y-73383885D01*
X198713182Y-73717219D02*
X198713182Y-72717219D01*
X198713182Y-73098171D02*
X198617944Y-73050552D01*
X198617944Y-73050552D02*
X198427468Y-73050552D01*
X198427468Y-73050552D02*
X198332230Y-73098171D01*
X198332230Y-73098171D02*
X198284611Y-73145790D01*
X198284611Y-73145790D02*
X198236992Y-73241028D01*
X198236992Y-73241028D02*
X198236992Y-73526742D01*
X198236992Y-73526742D02*
X198284611Y-73621980D01*
X198284611Y-73621980D02*
X198332230Y-73669600D01*
X198332230Y-73669600D02*
X198427468Y-73717219D01*
X198427468Y-73717219D02*
X198617944Y-73717219D01*
X198617944Y-73717219D02*
X198713182Y-73669600D01*
X197665563Y-73717219D02*
X197760801Y-73669600D01*
X197760801Y-73669600D02*
X197808420Y-73574361D01*
X197808420Y-73574361D02*
X197808420Y-72717219D01*
X197284610Y-73717219D02*
X197284610Y-73050552D01*
X197284610Y-72717219D02*
X197332229Y-72764838D01*
X197332229Y-72764838D02*
X197284610Y-72812457D01*
X197284610Y-72812457D02*
X197236991Y-72764838D01*
X197236991Y-72764838D02*
X197284610Y-72717219D01*
X197284610Y-72717219D02*
X197284610Y-72812457D01*
X196808420Y-73717219D02*
X196808420Y-72717219D01*
X196713182Y-73336266D02*
X196427468Y-73717219D01*
X196427468Y-73050552D02*
X196808420Y-73431504D01*
X195570325Y-73717219D02*
X195570325Y-73193409D01*
X195570325Y-73193409D02*
X195617944Y-73098171D01*
X195617944Y-73098171D02*
X195713182Y-73050552D01*
X195713182Y-73050552D02*
X195903658Y-73050552D01*
X195903658Y-73050552D02*
X195998896Y-73098171D01*
X195570325Y-73669600D02*
X195665563Y-73717219D01*
X195665563Y-73717219D02*
X195903658Y-73717219D01*
X195903658Y-73717219D02*
X195998896Y-73669600D01*
X195998896Y-73669600D02*
X196046515Y-73574361D01*
X196046515Y-73574361D02*
X196046515Y-73479123D01*
X196046515Y-73479123D02*
X195998896Y-73383885D01*
X195998896Y-73383885D02*
X195903658Y-73336266D01*
X195903658Y-73336266D02*
X195665563Y-73336266D01*
X195665563Y-73336266D02*
X195570325Y-73288647D01*
X195094134Y-73717219D02*
X195094134Y-73050552D01*
X195094134Y-73241028D02*
X195046515Y-73145790D01*
X195046515Y-73145790D02*
X194998896Y-73098171D01*
X194998896Y-73098171D02*
X194903658Y-73050552D01*
X194903658Y-73050552D02*
X194808420Y-73050552D01*
X203630326Y-70057219D02*
X203630326Y-69057219D01*
X203630326Y-69057219D02*
X203249374Y-69057219D01*
X203249374Y-69057219D02*
X203154136Y-69104838D01*
X203154136Y-69104838D02*
X203106517Y-69152457D01*
X203106517Y-69152457D02*
X203058898Y-69247695D01*
X203058898Y-69247695D02*
X203058898Y-69390552D01*
X203058898Y-69390552D02*
X203106517Y-69485790D01*
X203106517Y-69485790D02*
X203154136Y-69533409D01*
X203154136Y-69533409D02*
X203249374Y-69581028D01*
X203249374Y-69581028D02*
X203630326Y-69581028D01*
X202630326Y-70057219D02*
X202630326Y-69390552D01*
X202630326Y-69581028D02*
X202582707Y-69485790D01*
X202582707Y-69485790D02*
X202535088Y-69438171D01*
X202535088Y-69438171D02*
X202439850Y-69390552D01*
X202439850Y-69390552D02*
X202344612Y-69390552D01*
X201868421Y-70057219D02*
X201963659Y-70009600D01*
X201963659Y-70009600D02*
X202011278Y-69961980D01*
X202011278Y-69961980D02*
X202058897Y-69866742D01*
X202058897Y-69866742D02*
X202058897Y-69581028D01*
X202058897Y-69581028D02*
X202011278Y-69485790D01*
X202011278Y-69485790D02*
X201963659Y-69438171D01*
X201963659Y-69438171D02*
X201868421Y-69390552D01*
X201868421Y-69390552D02*
X201725564Y-69390552D01*
X201725564Y-69390552D02*
X201630326Y-69438171D01*
X201630326Y-69438171D02*
X201582707Y-69485790D01*
X201582707Y-69485790D02*
X201535088Y-69581028D01*
X201535088Y-69581028D02*
X201535088Y-69866742D01*
X201535088Y-69866742D02*
X201582707Y-69961980D01*
X201582707Y-69961980D02*
X201630326Y-70009600D01*
X201630326Y-70009600D02*
X201725564Y-70057219D01*
X201725564Y-70057219D02*
X201868421Y-70057219D01*
X201106516Y-69390552D02*
X201106516Y-70247695D01*
X201106516Y-70247695D02*
X201154135Y-70342933D01*
X201154135Y-70342933D02*
X201249373Y-70390552D01*
X201249373Y-70390552D02*
X201296992Y-70390552D01*
X201106516Y-69057219D02*
X201154135Y-69104838D01*
X201154135Y-69104838D02*
X201106516Y-69152457D01*
X201106516Y-69152457D02*
X201058897Y-69104838D01*
X201058897Y-69104838D02*
X201106516Y-69057219D01*
X201106516Y-69057219D02*
X201106516Y-69152457D01*
X200249374Y-70009600D02*
X200344612Y-70057219D01*
X200344612Y-70057219D02*
X200535088Y-70057219D01*
X200535088Y-70057219D02*
X200630326Y-70009600D01*
X200630326Y-70009600D02*
X200677945Y-69914361D01*
X200677945Y-69914361D02*
X200677945Y-69533409D01*
X200677945Y-69533409D02*
X200630326Y-69438171D01*
X200630326Y-69438171D02*
X200535088Y-69390552D01*
X200535088Y-69390552D02*
X200344612Y-69390552D01*
X200344612Y-69390552D02*
X200249374Y-69438171D01*
X200249374Y-69438171D02*
X200201755Y-69533409D01*
X200201755Y-69533409D02*
X200201755Y-69628647D01*
X200201755Y-69628647D02*
X200677945Y-69723885D01*
X199344612Y-70009600D02*
X199439850Y-70057219D01*
X199439850Y-70057219D02*
X199630326Y-70057219D01*
X199630326Y-70057219D02*
X199725564Y-70009600D01*
X199725564Y-70009600D02*
X199773183Y-69961980D01*
X199773183Y-69961980D02*
X199820802Y-69866742D01*
X199820802Y-69866742D02*
X199820802Y-69581028D01*
X199820802Y-69581028D02*
X199773183Y-69485790D01*
X199773183Y-69485790D02*
X199725564Y-69438171D01*
X199725564Y-69438171D02*
X199630326Y-69390552D01*
X199630326Y-69390552D02*
X199439850Y-69390552D01*
X199439850Y-69390552D02*
X199344612Y-69438171D01*
X199058897Y-69390552D02*
X198677945Y-69390552D01*
X198916040Y-69057219D02*
X198916040Y-69914361D01*
X198916040Y-69914361D02*
X198868421Y-70009600D01*
X198868421Y-70009600D02*
X198773183Y-70057219D01*
X198773183Y-70057219D02*
X198677945Y-70057219D01*
X198344611Y-69676266D02*
X197582707Y-69676266D01*
X196582707Y-70057219D02*
X197154135Y-70057219D01*
X196868421Y-70057219D02*
X196868421Y-69057219D01*
X196868421Y-69057219D02*
X196963659Y-69200076D01*
X196963659Y-69200076D02*
X197058897Y-69295314D01*
X197058897Y-69295314D02*
X197154135Y-69342933D01*
X211537469Y-38203409D02*
X210585088Y-38203409D01*
X211727945Y-38774838D02*
X211061279Y-36774838D01*
X211061279Y-36774838D02*
X210394612Y-38774838D01*
X207537468Y-37727219D02*
X208204135Y-37727219D01*
X208204135Y-38774838D02*
X208204135Y-36774838D01*
X208204135Y-36774838D02*
X207251754Y-36774838D01*
X205442230Y-38774838D02*
X206585087Y-38774838D01*
X206013659Y-38774838D02*
X206013659Y-36774838D01*
X206013659Y-36774838D02*
X206204135Y-37060552D01*
X206204135Y-37060552D02*
X206394611Y-37251028D01*
X206394611Y-37251028D02*
X206585087Y-37346266D01*
X201918420Y-38584361D02*
X202013658Y-38679600D01*
X202013658Y-38679600D02*
X202299372Y-38774838D01*
X202299372Y-38774838D02*
X202489848Y-38774838D01*
X202489848Y-38774838D02*
X202775563Y-38679600D01*
X202775563Y-38679600D02*
X202966039Y-38489123D01*
X202966039Y-38489123D02*
X203061277Y-38298647D01*
X203061277Y-38298647D02*
X203156515Y-37917695D01*
X203156515Y-37917695D02*
X203156515Y-37631980D01*
X203156515Y-37631980D02*
X203061277Y-37251028D01*
X203061277Y-37251028D02*
X202966039Y-37060552D01*
X202966039Y-37060552D02*
X202775563Y-36870076D01*
X202775563Y-36870076D02*
X202489848Y-36774838D01*
X202489848Y-36774838D02*
X202299372Y-36774838D01*
X202299372Y-36774838D02*
X202013658Y-36870076D01*
X202013658Y-36870076D02*
X201918420Y-36965314D01*
X200775563Y-38774838D02*
X200966039Y-38679600D01*
X200966039Y-38679600D02*
X201061277Y-38584361D01*
X201061277Y-38584361D02*
X201156515Y-38393885D01*
X201156515Y-38393885D02*
X201156515Y-37822457D01*
X201156515Y-37822457D02*
X201061277Y-37631980D01*
X201061277Y-37631980D02*
X200966039Y-37536742D01*
X200966039Y-37536742D02*
X200775563Y-37441504D01*
X200775563Y-37441504D02*
X200489848Y-37441504D01*
X200489848Y-37441504D02*
X200299372Y-37536742D01*
X200299372Y-37536742D02*
X200204134Y-37631980D01*
X200204134Y-37631980D02*
X200108896Y-37822457D01*
X200108896Y-37822457D02*
X200108896Y-38393885D01*
X200108896Y-38393885D02*
X200204134Y-38584361D01*
X200204134Y-38584361D02*
X200299372Y-38679600D01*
X200299372Y-38679600D02*
X200489848Y-38774838D01*
X200489848Y-38774838D02*
X200775563Y-38774838D01*
X199251753Y-38774838D02*
X199251753Y-37441504D01*
X199251753Y-37631980D02*
X199156515Y-37536742D01*
X199156515Y-37536742D02*
X198966039Y-37441504D01*
X198966039Y-37441504D02*
X198680324Y-37441504D01*
X198680324Y-37441504D02*
X198489848Y-37536742D01*
X198489848Y-37536742D02*
X198394610Y-37727219D01*
X198394610Y-37727219D02*
X198394610Y-38774838D01*
X198394610Y-37727219D02*
X198299372Y-37536742D01*
X198299372Y-37536742D02*
X198108896Y-37441504D01*
X198108896Y-37441504D02*
X197823182Y-37441504D01*
X197823182Y-37441504D02*
X197632705Y-37536742D01*
X197632705Y-37536742D02*
X197537467Y-37727219D01*
X197537467Y-37727219D02*
X197537467Y-38774838D01*
X196585086Y-37441504D02*
X196585086Y-39441504D01*
X196585086Y-37536742D02*
X196394610Y-37441504D01*
X196394610Y-37441504D02*
X196013657Y-37441504D01*
X196013657Y-37441504D02*
X195823181Y-37536742D01*
X195823181Y-37536742D02*
X195727943Y-37631980D01*
X195727943Y-37631980D02*
X195632705Y-37822457D01*
X195632705Y-37822457D02*
X195632705Y-38393885D01*
X195632705Y-38393885D02*
X195727943Y-38584361D01*
X195727943Y-38584361D02*
X195823181Y-38679600D01*
X195823181Y-38679600D02*
X196013657Y-38774838D01*
X196013657Y-38774838D02*
X196394610Y-38774838D01*
X196394610Y-38774838D02*
X196585086Y-38679600D01*
X193918419Y-38774838D02*
X193918419Y-37727219D01*
X193918419Y-37727219D02*
X194013657Y-37536742D01*
X194013657Y-37536742D02*
X194204133Y-37441504D01*
X194204133Y-37441504D02*
X194585086Y-37441504D01*
X194585086Y-37441504D02*
X194775562Y-37536742D01*
X193918419Y-38679600D02*
X194108895Y-38774838D01*
X194108895Y-38774838D02*
X194585086Y-38774838D01*
X194585086Y-38774838D02*
X194775562Y-38679600D01*
X194775562Y-38679600D02*
X194870800Y-38489123D01*
X194870800Y-38489123D02*
X194870800Y-38298647D01*
X194870800Y-38298647D02*
X194775562Y-38108171D01*
X194775562Y-38108171D02*
X194585086Y-38012933D01*
X194585086Y-38012933D02*
X194108895Y-38012933D01*
X194108895Y-38012933D02*
X193918419Y-37917695D01*
X192966038Y-37441504D02*
X192966038Y-38774838D01*
X192966038Y-37631980D02*
X192870800Y-37536742D01*
X192870800Y-37536742D02*
X192680324Y-37441504D01*
X192680324Y-37441504D02*
X192394609Y-37441504D01*
X192394609Y-37441504D02*
X192204133Y-37536742D01*
X192204133Y-37536742D02*
X192108895Y-37727219D01*
X192108895Y-37727219D02*
X192108895Y-38774838D01*
X191156514Y-38774838D02*
X191156514Y-37441504D01*
X191156514Y-36774838D02*
X191251752Y-36870076D01*
X191251752Y-36870076D02*
X191156514Y-36965314D01*
X191156514Y-36965314D02*
X191061276Y-36870076D01*
X191061276Y-36870076D02*
X191156514Y-36774838D01*
X191156514Y-36774838D02*
X191156514Y-36965314D01*
X189918419Y-38774838D02*
X190108895Y-38679600D01*
X190108895Y-38679600D02*
X190204133Y-38584361D01*
X190204133Y-38584361D02*
X190299371Y-38393885D01*
X190299371Y-38393885D02*
X190299371Y-37822457D01*
X190299371Y-37822457D02*
X190204133Y-37631980D01*
X190204133Y-37631980D02*
X190108895Y-37536742D01*
X190108895Y-37536742D02*
X189918419Y-37441504D01*
X189918419Y-37441504D02*
X189632704Y-37441504D01*
X189632704Y-37441504D02*
X189442228Y-37536742D01*
X189442228Y-37536742D02*
X189346990Y-37631980D01*
X189346990Y-37631980D02*
X189251752Y-37822457D01*
X189251752Y-37822457D02*
X189251752Y-38393885D01*
X189251752Y-38393885D02*
X189346990Y-38584361D01*
X189346990Y-38584361D02*
X189442228Y-38679600D01*
X189442228Y-38679600D02*
X189632704Y-38774838D01*
X189632704Y-38774838D02*
X189918419Y-38774838D01*
X188394609Y-37441504D02*
X188394609Y-38774838D01*
X188394609Y-37631980D02*
X188299371Y-37536742D01*
X188299371Y-37536742D02*
X188108895Y-37441504D01*
X188108895Y-37441504D02*
X187823180Y-37441504D01*
X187823180Y-37441504D02*
X187632704Y-37536742D01*
X187632704Y-37536742D02*
X187537466Y-37727219D01*
X187537466Y-37727219D02*
X187537466Y-38774838D01*
D11*
X219603910Y-35834476D02*
X221508672Y-35834476D01*
X221508672Y-35834476D02*
X221508672Y-31834476D01*
X218461053Y-34691619D02*
X216556291Y-34691619D01*
X218842005Y-35834476D02*
X217508672Y-31834476D01*
X217508672Y-31834476D02*
X216175338Y-35834476D01*
X214842006Y-31834476D02*
X214842006Y-35072571D01*
X214842006Y-35072571D02*
X214651529Y-35453523D01*
X214651529Y-35453523D02*
X214461053Y-35644000D01*
X214461053Y-35644000D02*
X214080101Y-35834476D01*
X214080101Y-35834476D02*
X213318196Y-35834476D01*
X213318196Y-35834476D02*
X212937244Y-35644000D01*
X212937244Y-35644000D02*
X212746767Y-35453523D01*
X212746767Y-35453523D02*
X212556291Y-35072571D01*
X212556291Y-35072571D02*
X212556291Y-31834476D01*
X210651530Y-35834476D02*
X210651530Y-31834476D01*
X210651530Y-31834476D02*
X208365815Y-35834476D01*
X208365815Y-35834476D02*
X208365815Y-31834476D01*
X204175339Y-35453523D02*
X204365815Y-35644000D01*
X204365815Y-35644000D02*
X204937244Y-35834476D01*
X204937244Y-35834476D02*
X205318196Y-35834476D01*
X205318196Y-35834476D02*
X205889625Y-35644000D01*
X205889625Y-35644000D02*
X206270577Y-35263047D01*
X206270577Y-35263047D02*
X206461054Y-34882095D01*
X206461054Y-34882095D02*
X206651530Y-34120190D01*
X206651530Y-34120190D02*
X206651530Y-33548761D01*
X206651530Y-33548761D02*
X206461054Y-32786857D01*
X206461054Y-32786857D02*
X206270577Y-32405904D01*
X206270577Y-32405904D02*
X205889625Y-32024952D01*
X205889625Y-32024952D02*
X205318196Y-31834476D01*
X205318196Y-31834476D02*
X204937244Y-31834476D01*
X204937244Y-31834476D02*
X204365815Y-32024952D01*
X204365815Y-32024952D02*
X204175339Y-32215428D01*
X202461054Y-35834476D02*
X202461054Y-31834476D01*
X202461054Y-33739238D02*
X200175339Y-33739238D01*
X200175339Y-35834476D02*
X200175339Y-31834476D01*
X198270578Y-35834476D02*
X198270578Y-31834476D01*
X198270578Y-31834476D02*
X196746768Y-31834476D01*
X196746768Y-31834476D02*
X196365816Y-32024952D01*
X196365816Y-32024952D02*
X196175339Y-32215428D01*
X196175339Y-32215428D02*
X195984863Y-32596380D01*
X195984863Y-32596380D02*
X195984863Y-33167809D01*
X195984863Y-33167809D02*
X196175339Y-33548761D01*
X196175339Y-33548761D02*
X196365816Y-33739238D01*
X196365816Y-33739238D02*
X196746768Y-33929714D01*
X196746768Y-33929714D02*
X198270578Y-33929714D01*
X194461054Y-34691619D02*
X192556292Y-34691619D01*
X194842006Y-35834476D02*
X193508673Y-31834476D01*
X193508673Y-31834476D02*
X192175339Y-35834476D01*
X190842007Y-35834476D02*
X190842007Y-31834476D01*
X190842007Y-31834476D02*
X189889626Y-31834476D01*
X189889626Y-31834476D02*
X189318197Y-32024952D01*
X189318197Y-32024952D02*
X188937245Y-32405904D01*
X188937245Y-32405904D02*
X188746768Y-32786857D01*
X188746768Y-32786857D02*
X188556292Y-33548761D01*
X188556292Y-33548761D02*
X188556292Y-34120190D01*
X188556292Y-34120190D02*
X188746768Y-34882095D01*
X188746768Y-34882095D02*
X188937245Y-35263047D01*
X188937245Y-35263047D02*
X189318197Y-35644000D01*
X189318197Y-35644000D02*
X189889626Y-35834476D01*
X189889626Y-35834476D02*
X190842007Y-35834476D01*
X187794388Y-36215428D02*
X184746768Y-36215428D01*
X184365816Y-31834476D02*
X183032483Y-35834476D01*
X183032483Y-35834476D02*
X181699149Y-31834476D01*
X180556293Y-32215428D02*
X180365817Y-32024952D01*
X180365817Y-32024952D02*
X179984864Y-31834476D01*
X179984864Y-31834476D02*
X179032483Y-31834476D01*
X179032483Y-31834476D02*
X178651531Y-32024952D01*
X178651531Y-32024952D02*
X178461055Y-32215428D01*
X178461055Y-32215428D02*
X178270578Y-32596380D01*
X178270578Y-32596380D02*
X178270578Y-32977333D01*
X178270578Y-32977333D02*
X178461055Y-33548761D01*
X178461055Y-33548761D02*
X180746769Y-35834476D01*
X180746769Y-35834476D02*
X178270578Y-35834476D01*
M02*
