M48
; DRILL file {KiCad 9.0.2} date 2025-07-29T19:47:09-0400
; FORMAT={-:-/ absolute / metric / decimal}
; #@! TF.CreationDate,2025-07-29T19:47:09-04:00
; #@! TF.GenerationSoftware,Kicad,Pcbnew,9.0.2
; #@! TF.FileFunction,Plated,1,2,PTH
FMAT,2
METRIC
; #@! TA.AperFunction,Plated,PTH,ViaDrill
T1C0.300
; #@! TA.AperFunction,Plated,PTH,ComponentDrill
T2C0.700
; #@! TA.AperFunction,Plated,PTH,ComponentDrill
T3C0.889
; #@! TA.AperFunction,Plated,PTH,ComponentDrill
T4C1.210
; #@! TA.AperFunction,Plated,PTH,ComponentDrill
T5C1.500
%
G90
G05
T1
X186.53Y-57.35
T2
X188.865Y-41.1
X188.865Y-46.18
X196.33Y-41.04
X196.33Y-46.12
X203.795Y-41.0
X203.795Y-46.08
X211.26Y-40.69
X211.26Y-45.77
T3
X192.54Y-52.75
X192.54Y-55.29
X192.54Y-57.83
X192.54Y-60.37
X192.54Y-62.91
X192.54Y-65.45
X192.54Y-67.99
X207.78Y-52.75
X207.78Y-55.29
X207.78Y-57.83
X207.78Y-60.37
X207.78Y-62.91
X207.78Y-65.45
X207.78Y-67.99
T4
X188.865Y-26.32
X188.865Y-28.86
X196.33Y-26.32
X196.33Y-28.86
X203.795Y-26.32
X203.795Y-28.86
X211.26Y-26.32
X211.26Y-28.86
T5
X166.57Y-37.02
X166.62Y-57.05
X172.92Y-34.48
X172.97Y-54.51
X225.67Y-36.97
X225.77Y-56.85
X232.02Y-34.43
X232.12Y-54.31
M30
