%TF.GenerationSoftware,KiCad,Pcbnew,9.0.2*%
%TF.CreationDate,2025-07-29T19:40:39-04:00*%
%TF.ProjectId,LaunchPad_V2,4c61756e-6368-4506-9164-5f56322e6b69,rev?*%
%TF.SameCoordinates,Original*%
%TF.FileFunction,Soldermask,Bot*%
%TF.FilePolarity,Negative*%
%FSLAX46Y46*%
G04 Gerber Fmt 4.6, Leading zero omitted, Abs format (unit mm)*
G04 Created by KiCad (PCBNEW 9.0.2) date 2025-07-29 19:40:39*
%MOMM*%
%LPD*%
G01*
G04 APERTURE LIST*
G04 Aperture macros list*
%AMRoundRect*
0 Rectangle with rounded corners*
0 $1 Rounding radius*
0 $2 $3 $4 $5 $6 $7 $8 $9 X,Y pos of 4 corners*
0 Add a 4 corners polygon primitive as box body*
4,1,4,$2,$3,$4,$5,$6,$7,$8,$9,$2,$3,0*
0 Add four circle primitives for the rounded corners*
1,1,$1+$1,$2,$3*
1,1,$1+$1,$4,$5*
1,1,$1+$1,$6,$7*
1,1,$1+$1,$8,$9*
0 Add four rect primitives between the rounded corners*
20,1,$1+$1,$2,$3,$4,$5,0*
20,1,$1+$1,$4,$5,$6,$7,0*
20,1,$1+$1,$6,$7,$8,$9,0*
20,1,$1+$1,$8,$9,$2,$3,0*%
G04 Aperture macros list end*
%ADD10C,1.400000*%
%ADD11C,1.524000*%
%ADD12C,2.019000*%
%ADD13RoundRect,0.102000X-0.907500X0.907500X-0.907500X-0.907500X0.907500X-0.907500X0.907500X0.907500X0*%
%ADD14C,1.700000*%
%ADD15C,4.000000*%
%ADD16C,2.200000*%
G04 APERTURE END LIST*
D10*
%TO.C,R3*%
X203795106Y-41000000D03*
X203795106Y-46080000D03*
%TD*%
D11*
%TO.C,U1*%
X192540000Y-67990000D03*
X192540000Y-65450000D03*
X192540000Y-62910000D03*
X192540000Y-60370000D03*
X192540000Y-57830000D03*
X192540000Y-55290000D03*
X192540000Y-52750000D03*
X207780000Y-52750000D03*
X207780000Y-55290000D03*
X207780000Y-57830000D03*
X207780000Y-60370000D03*
X207780000Y-62910000D03*
X207780000Y-65450000D03*
X207780000Y-67990000D03*
%TD*%
D12*
%TO.C,D5*%
X188864894Y-28860000D03*
D13*
X188864894Y-26320000D03*
%TD*%
D14*
%TO.C,SW4*%
X224500000Y-59390000D03*
D15*
X229580000Y-59390000D03*
D14*
X234660000Y-59390000D03*
D16*
X232120000Y-54310000D03*
X225770000Y-56850000D03*
%TD*%
D14*
%TO.C,SW1*%
X165300000Y-39560000D03*
D15*
X170380000Y-39560000D03*
D14*
X175460000Y-39560000D03*
D16*
X172920000Y-34480000D03*
X166570000Y-37020000D03*
%TD*%
D12*
%TO.C,D2*%
X203795106Y-28860000D03*
D13*
X203795106Y-26320000D03*
%TD*%
D10*
%TO.C,R2*%
X211260212Y-45770000D03*
X211260212Y-40690000D03*
%TD*%
D12*
%TO.C,D1*%
X211260212Y-28860000D03*
D13*
X211260212Y-26320000D03*
%TD*%
D14*
%TO.C,SW3*%
X224400000Y-39510000D03*
D15*
X229480000Y-39510000D03*
D14*
X234560000Y-39510000D03*
D16*
X232020000Y-34430000D03*
X225670000Y-36970000D03*
%TD*%
D12*
%TO.C,D3*%
X196330000Y-28860000D03*
D13*
X196330000Y-26320000D03*
%TD*%
D10*
%TO.C,R4*%
X196330000Y-46120000D03*
X196330000Y-41040000D03*
%TD*%
%TO.C,R1*%
X188864894Y-46180000D03*
X188864894Y-41100000D03*
%TD*%
D14*
%TO.C,SW2*%
X165350000Y-59590000D03*
D15*
X170430000Y-59590000D03*
D14*
X175510000Y-59590000D03*
D16*
X172970000Y-54510000D03*
X166620000Y-57050000D03*
%TD*%
M02*
